<svg id="Слой_1" data-name="Слой 1" xmlns="http://www.w3.org/2000/svg" viewBox="0 0 46 40"><defs><style>.cls-1{fill:#999;}.cls-2{fill:none;}</style></defs><g><path class="cls-1" d="M132,72V70h-2V69H90v1H88v2H87v28h1v2h2v1h4v6h1v-1h1v-1h1v-1h1v-1h1v-1h1v-1h30v-1h2v-2h1V72Zm-7,22H94V92h31Zm0-5H94V87h31Zm0-5H94V82h31Zm0-5H94V77h31Z" transform="translate(-87 -69)"/><rect class="cls-2" x="7" y="8" width="31" height="2"/><rect class="cls-2" x="7" y="13" width="31" height="2"/><rect class="cls-2" x="7" y="18" width="31" height="2"/><rect class="cls-2" x="7" y="23" width="31" height="2"/></g></svg>